<svg width="64" height="64" viewBox="0 0 64 64" fill="none" xmlns="http://www.w3.org/2000/svg">
<g clip-path="url(#clip0_1675_60)">
<path d="M63.992 48.6927C63.992 50.6565 62.7442 52.8767 60.4325 53.7525C58.1248 54.6287 38.0192 62.5648 35.2957 63.3728C32.5719 64.1808 31.4921 64.2368 29.2484 63.3728C27.0046 62.5088 5.43932 54.7247 3.55954 53.7525C1.67979 52.7807 0 50.6565 0 48.6927V3.55604C0.00399951 1.59202 1.5958 0 3.56355 0H60.4405C62.4044 0 64 1.59202 64 3.55604L63.992 48.6927Z" fill="#31B7DA"/>
<path d="M21.0436 27.4783C26.7105 27.4783 31.3045 22.8843 31.3045 17.2174C31.3045 11.5505 26.7105 6.95654 21.0436 6.95654C15.3767 6.95654 10.7827 11.5505 10.7827 17.2174C10.7827 22.8843 15.3767 27.4783 21.0436 27.4783Z" stroke="white" stroke-width="1.04348"/>
<path d="M21.0436 25.5653C25.654 25.5653 29.3915 21.8278 29.3915 17.2175C29.3915 12.6071 25.654 8.86963 21.0436 8.86963C16.4332 8.86963 12.6958 12.6071 12.6958 17.2175C12.6958 21.8278 16.4332 25.5653 21.0436 25.5653Z" fill="white"/>
<path d="M42.6089 19.6523C43.9535 19.6523 45.0436 18.5622 45.0436 17.2175C45.0436 15.8728 43.9535 14.7827 42.6089 14.7827C41.2642 14.7827 40.1741 15.8728 40.1741 17.2175C40.1741 18.5622 41.2642 19.6523 42.6089 19.6523Z" fill="white"/>
<path d="M42.6089 45.7392C46.4508 45.7392 49.5654 42.6247 49.5654 38.7827C49.5654 34.9407 46.4508 31.8262 42.6089 31.8262C38.7669 31.8262 35.6523 34.9407 35.6523 38.7827C35.6523 42.6247 38.7669 45.7392 42.6089 45.7392Z" fill="white"/>
<path d="M21.0435 42.9565C23.3487 42.9565 25.2175 41.0877 25.2175 38.7826C25.2175 36.4774 23.3487 34.6086 21.0435 34.6086C18.7384 34.6086 16.8696 36.4774 16.8696 38.7826C16.8696 41.0877 18.7384 42.9565 21.0435 42.9565Z" fill="white"/>
<path d="M21.0436 49.0435C26.7105 49.0435 31.3045 44.4495 31.3045 38.7826C31.3045 33.1157 26.7105 28.5217 21.0436 28.5217C15.3767 28.5217 10.7827 33.1157 10.7827 38.7826C10.7827 44.4495 15.3767 49.0435 21.0436 49.0435Z" stroke="white" stroke-width="1.04348"/>
<path d="M42.6088 27.4783C48.2757 27.4783 52.8696 22.8843 52.8696 17.2174C52.8696 11.5505 48.2757 6.95654 42.6088 6.95654C36.9418 6.95654 32.3479 11.5505 32.3479 17.2174C32.3479 22.8843 36.9418 27.4783 42.6088 27.4783Z" stroke="white" stroke-width="1.04348"/>
<path d="M42.6088 49.0435C48.2757 49.0435 52.8696 44.4495 52.8696 38.7826C52.8696 33.1157 48.2757 28.5217 42.6088 28.5217C36.9418 28.5217 32.3479 33.1157 32.3479 38.7826C32.3479 44.4495 36.9418 49.0435 42.6088 49.0435Z" stroke="white" stroke-width="1.04348"/>
</g>
<defs>
<clipPath id="clip0_1675_60">
<rect width="64" height="64" fill="white"/>
</clipPath>
</defs>
</svg>
